<svg xmlns="http://www.w3.org/2000/svg" width="117" height="22"><style/><g id="header 1"><path id="logo zonex" class="shp0" d="M1 1h17L8 18h9v4H0L10 6H1V1zm32 21c-6.08 0-11-4.93-11-11 0-.67.07-1.32.18-1.95l5.73 5.09C28.97 15.85 30.84 17 33 17c3.31 0 6-2.69 6-6s-2.69-6-6-6c-2.24 0-4.18 1.25-5.21 3.07l-3.82-3.34C25.96 1.87 29.26 0 33 0c6.08 0 11 4.92 11 11 0 6.07-4.92 11-11 11zm17 0V12l5 3v7h-5zm0-16l19 16V0h-5v11L50 0v6zm41-6H76v22h15v-4H81v-5h9V9h-9V4h10V0zm26 22h-6l-5-6.88-5 6.88h-6l8-11-8-11h6l5 6.87L111 0h6l-8 11 8 11z"/></g></svg>