<svg xmlns="http://www.w3.org/2000/svg" viewBox="0 0 117 22" width="117" height="22">
	<style>
		tspan { white-space:pre }
	</style>
	<g id="header 1">
		<path id="logo zonex" class="shp0" d="M1 1L18 1L8 18L17 18L17 22L0 22L10 6L1 6L1 1ZM33 22C26.92 22 22 17.07 22 11C22 10.33 22.07 9.68 22.18 9.05L27.91 14.14C28.97 15.85 30.84 17 33 17C36.31 17 39 14.31 39 11C39 7.69 36.31 5 33 5C30.76 5 28.82 6.25 27.79 8.07L23.97 4.73C25.96 1.87 29.26 0 33 0C39.08 0 44 4.92 44 11C44 17.07 39.08 22 33 22ZM50 22L50 12L55 15L55 22L50 22ZM50 6L69 22L69 0L64 0L64 11L50 0L50 6ZM91 0L76 0L76 22L91 22L91 18L81 18L81 13L90 13L90 9L81 9L81 4L91 4L91 0ZM117 22L111 22L106 15.12L101 22L95 22L103 11L95 0L101 0L106 6.87L111 0L117 0L109 11L117 22Z" />
	</g>
</svg>